<?xml version="1.0" encoding="UTF-8" standalone="no"?>
<!DOCTYPE svg PUBLIC "-//W3C//DTD SVG 1.1//EN" "http://www.w3.org/Graphics/SVG/1.1/DTD/svg11.dtd">
<svg width="100%" height="100%" viewBox="0 0 43 43" version="1.1" xmlns="http://www.w3.org/2000/svg" xmlns:xlink="http://www.w3.org/1999/xlink" xml:space="preserve" xmlns:serif="http://www.serif.com/" style="fill-rule:evenodd;clip-rule:evenodd;stroke-linejoin:round;stroke-miterlimit:2;">
    <g transform="matrix(1,0,0,1,-2.7,-2.7)">
        <g id="XMLID_16455_">
            <g id="XMLID_16462_" transform="matrix(0.369676,0.929161,-0.929161,0.369676,37.4276,-7.17208)">
                <circle cx="24" cy="24" r="20.8" style="fill:url(#_Linear1);"/>
            </g>
            <path id="XMLID_16461_" d="M41.8,13.3C42.5,15.2 42.9,17.3 42.9,19.5C42.9,29.9 34.5,38.4 24,38.4C13.5,38.4 5.1,29.9 5.1,19.5C5.1,17.3 5.5,15.3 6.2,13.3C4.3,16.4 3.2,20.1 3.2,24C3.2,35.5 12.5,44.8 24,44.8C35.5,44.8 44.8,35.5 44.8,24C44.8,20.1 43.7,16.4 41.8,13.3Z" style="fill-opacity:0.15;fill-rule:nonzero;stroke:rgb(57,57,57);stroke-width:1px;"/>
            <circle id="XMLID_16460_" cx="24" cy="24" r="20.8" style="fill:none;stroke:rgb(57,57,57);stroke-width:1px;stroke-linecap:round;stroke-miterlimit:10;"/>
            <g id="XMLID_16459_" transform="matrix(0.994684,0,0,1,0.0170114,0)">
                <path d="M44.8,22.6C41.2,17.1 27.8,15.1 12.7,18.2C8.5,19.1 4.8,21.5 3.2,23.6" style="fill:none;fill-rule:nonzero;stroke:rgb(57,57,57);stroke-width:1px;stroke-linecap:round;stroke-miterlimit:10;"/>
            </g>
            <g id="XMLID_16458_" transform="matrix(1,0,0,0.995481,0,0.0185289)">
                <path d="M18,4.1C15.2,8.7 13.8,15.7 14.6,23.5C15.6,33.8 20.1,42.2 25.5,44.8" style="fill:none;fill-rule:nonzero;stroke:rgb(57,57,57);stroke-width:1px;stroke-linecap:round;stroke-miterlimit:10;"/>
            </g>
            <path id="XMLID_16457_" d="M4.9,32.2C5.9,28.4 8.5,24.5 14.6,23.4C25,21.6 32,31.7 40.3,36.9" style="fill:none;fill-rule:nonzero;stroke:rgb(57,57,57);stroke-width:1px;stroke-linecap:round;stroke-miterlimit:10;"/>
            <path id="XMLID_16456_" d="M31,4.4C26.2,8.2 20.7,12.2 15,13.4C10.5,14.3 8.7,12.5 8,10.7" style="fill:none;fill-rule:nonzero;stroke:rgb(57,57,57);stroke-width:1px;stroke-linecap:round;stroke-miterlimit:10;"/>
        </g>
    </g>
    <defs>
        <linearGradient id="_Linear1" x1="0" y1="0" x2="1" y2="0" gradientUnits="userSpaceOnUse" gradientTransform="matrix(41.6,0,0,41.6,3.2,24)"><stop offset="0" style="stop-color:rgb(255,137,43);stop-opacity:1"/><stop offset="1" style="stop-color:rgb(240,113,255);stop-opacity:1"/></linearGradient>
    </defs>
</svg>
