<?xml version="1.0" encoding="UTF-8" standalone="no"?>
<!DOCTYPE svg PUBLIC "-//W3C//DTD SVG 1.1//EN" "http://www.w3.org/Graphics/SVG/1.1/DTD/svg11.dtd">
<svg width="100%" height="100%" viewBox="0 0 1024 1024" version="1.1" xmlns="http://www.w3.org/2000/svg" xmlns:xlink="http://www.w3.org/1999/xlink" xml:space="preserve" xmlns:serif="http://www.serif.com/" style="fill-rule:evenodd;clip-rule:evenodd;stroke-linejoin:round;stroke-miterlimit:2;">
    <g transform="matrix(1,0,0,1,-331.471,267.798)">
        <path d="M701.137,331.848L717.25,344.055C713.018,353.17 708.949,361.145 705.043,367.981C701.137,374.817 696.417,383.118 690.883,392.884C685.349,402.649 681.117,409.973 678.188,414.856C653.773,457.499 630.824,478.821 609.34,478.821C600.225,478.821 592.413,475.24 585.902,468.079C579.392,460.917 576.137,451.152 576.137,438.782C576.137,421.204 582.403,397.115 594.936,366.516C607.468,335.917 626.837,298.238 653.041,253.479C679.246,208.72 712.204,158.02 751.918,101.38C791.632,44.739 836.391,-14.994 886.195,-77.82C857.55,-82.051 823.533,-84.167 784.145,-84.167C738.897,-84.167 688.523,-79.122 633.022,-69.031C577.52,-58.939 529.18,-47.302 488.002,-34.118C446.824,-20.935 426.234,-11.251 426.234,-5.066C426.234,-2.787 427.048,-1.241 428.676,-0.427C430.303,0.387 432.989,1.038 436.732,1.526C440.476,2.014 445.277,2.584 451.137,3.235C489.223,8.443 508.266,14.303 508.266,20.813C508.266,24.068 499.965,25.615 483.363,25.452C466.762,25.289 446.742,25.208 423.305,25.208C404.75,25.208 391.322,24.475 383.022,23.01C374.721,21.546 369.187,18.779 366.42,14.71C363.653,10.641 362.27,4.374 362.27,-4.089C362.27,-9.623 363.897,-21.667 367.152,-40.222C373.337,-74.727 382.859,-102.396 395.717,-123.23C408.575,-144.063 428.269,-161.072 454.799,-174.255C481.329,-187.439 517.869,-197.937 564.418,-205.749C642.543,-219.096 707.159,-225.769 758.266,-225.769C796.026,-225.769 825.811,-224.223 847.621,-221.13C869.431,-218.038 885.463,-213.562 895.717,-207.702C905.971,-201.843 912.481,-196.065 915.248,-190.368C918.015,-184.672 921.677,-174.825 926.234,-160.827L941.371,-115.906C942.348,-112.976 943.162,-110.616 943.813,-108.825C944.464,-107.035 945.033,-105.163 945.522,-103.21C946.01,-101.257 946.254,-99.467 946.254,-97.839C946.254,-85.144 943.406,-73.751 937.709,-63.659C932.012,-53.568 921.596,-38.432 906.459,-18.249C891.322,1.933 880.173,17.721 873.012,29.114C789.027,165.507 731.736,266.419 701.137,331.848Z" style="fill:white;fill-rule:nonzero;"/>
        <path d="M1257.29,309.876L1127.41,383.118C1098.76,431.621 1070.03,477.438 1041.22,520.569C1012.42,563.701 986.863,599.345 964.565,627.503C942.266,655.66 922.979,677.145 906.703,691.956C890.427,706.767 878.383,714.173 870.57,714.173C860.154,714.173 851.69,710.673 845.18,703.675C838.669,696.676 835.414,688.456 835.414,679.016C835.414,643.86 855.19,599.833 894.74,546.936C934.291,494.039 996.872,437.805 1082.48,378.235C1119.59,306.946 1150.19,242.167 1174.28,183.899C1198.37,125.631 1216.76,75.826 1229.46,34.485C1242.15,-6.856 1251.02,-40.059 1256.07,-65.124C1261.11,-90.189 1263.64,-106.14 1263.64,-112.976C1263.64,-126.973 1258.27,-133.972 1247.52,-133.972C1238.73,-133.972 1225.8,-128.926 1208.7,-118.835C1191.62,-108.744 1173.14,-93.689 1153.29,-73.669C1133.43,-53.65 1114.87,-30.456 1097.62,-4.089C1080.37,21.953 1064.66,51.168 1050.5,83.557C1036.34,115.947 1025.44,145.813 1017.79,173.157C1010.14,200.501 1006.31,222.473 1006.31,239.075C1006.31,243.307 1006.96,252.584 1008.27,266.907C1011.2,262.35 1014.78,256.816 1019.01,250.305C1023.24,243.795 1028.61,237.122 1035.12,230.286C1041.63,223.45 1048.47,217.753 1055.63,213.196C1059.86,209.941 1064.91,207.255 1070.77,205.139C1076.62,203.024 1079.56,203.268 1079.56,205.872C1079.56,207.825 1070.28,220.113 1051.72,242.737C1033.17,265.361 1017.06,285.787 1003.38,304.016C995.57,314.433 985.154,324.199 972.133,333.313C959.112,342.428 948.533,346.985 940.395,346.985C930.629,346.985 924.2,342.428 921.107,333.313C918.015,324.199 916.469,309.713 916.469,289.856C916.469,242.005 924.688,188.782 941.127,130.188C957.566,71.594 979.62,20.162 1007.29,-24.109C1029.75,-59.265 1057.26,-91.085 1089.81,-119.568C1122.36,-148.051 1154.02,-170.268 1184.78,-186.218C1215.54,-202.169 1239.71,-210.144 1257.29,-210.144C1278.77,-210.144 1295.38,-203.389 1307.09,-189.88C1318.81,-176.371 1324.67,-157.735 1324.67,-133.972C1324.67,-122.253 1323.29,-109.07 1320.52,-94.421C1317.76,-79.773 1314.26,-64.962 1310.02,-49.988C1305.79,-35.014 1298.47,-10.925 1288.05,22.278C1277.63,55.481 1270.8,77.454 1267.54,88.196C1257.45,121.725 1244.19,156.149 1227.75,191.468C1211.31,226.787 1187.95,273.58 1157.68,331.848L1257.29,278.137L1257.29,309.876Z" style="fill:white;fill-rule:nonzero;"/>
    </g>
</svg>
