<?xml version="1.0" encoding="UTF-8" standalone="no"?>
<!DOCTYPE svg PUBLIC "-//W3C//DTD SVG 1.1//EN" "http://www.w3.org/Graphics/SVG/1.1/DTD/svg11.dtd">
<svg width="100%" height="100%" viewBox="0 0 135 41" version="1.1" xmlns="http://www.w3.org/2000/svg" xmlns:xlink="http://www.w3.org/1999/xlink" xml:space="preserve" xmlns:serif="http://www.serif.com/" style="fill-rule:evenodd;clip-rule:evenodd;stroke-miterlimit:10;">
    <g transform="matrix(1,0,0,1,130,0)">
        <path d="M0,40L-125,40C-127.75,40 -130,37.75 -130,35L-130,5C-130,2.25 -127.75,0 -125,0L0,0C2.75,0 5,2.25 5,5L5,35C5,37.75 2.75,40 0,40" style="fill-rule:nonzero;"/>
    </g>
    <g transform="matrix(1,0,0,1,130,40.0002)">
        <path d="M0,-40L-125,-40C-127.75,-40 -130,-37.75 -130,-35L-130,-5C-130,-2.25 -127.75,0 -125,0L0,0C2.75,0 5,-2.25 5,-5L5,-35C5,-37.75 2.75,-40 0,-40M0,-39.2C2.316,-39.2 4.2,-37.316 4.2,-35L4.2,-5C4.2,-2.684 2.316,-0.8 0,-0.8L-125,-0.8C-127.316,-0.8 -129.2,-2.684 -129.2,-5L-129.2,-35C-129.2,-37.316 -127.316,-39.2 -125,-39.2L0,-39.2Z" style="fill:rgb(166,166,166);fill-rule:nonzero;"/>
    </g>
    <g transform="matrix(1,0,0,1,47.4184,9.7563)">
        <path d="M0,0.487C0,1.325 -0.248,1.992 -0.745,2.49C-1.31,3.082 -2.045,3.378 -2.949,3.378C-3.816,3.378 -4.552,3.078 -5.157,2.477C-5.764,1.877 -6.066,1.132 -6.066,0.244C-6.066,-0.645 -5.764,-1.389 -5.157,-1.99C-4.552,-2.59 -3.816,-2.891 -2.949,-2.891C-2.52,-2.891 -2.108,-2.807 -1.718,-2.639C-1.327,-2.471 -1.014,-2.248 -0.779,-1.969L-1.307,-1.441C-1.704,-1.915 -2.251,-2.153 -2.949,-2.153C-3.581,-2.153 -4.127,-1.931 -4.588,-1.487C-5.049,-1.042 -5.279,-0.466 -5.279,0.244C-5.279,0.953 -5.049,1.53 -4.588,1.974C-4.127,2.419 -3.581,2.64 -2.949,2.64C-2.279,2.64 -1.721,2.417 -1.273,1.97C-0.983,1.679 -0.816,1.275 -0.771,0.755L-2.949,0.755L-2.949,0.034L-0.042,0.034C-0.014,0.191 0,0.342 0,0.487" style="fill:white;fill-rule:nonzero;"/>
    </g>
    <g transform="matrix(1,0,0,1,47.4184,9.7563)">
        <path d="M0,0.487C0,1.325 -0.248,1.992 -0.745,2.49C-1.31,3.082 -2.045,3.378 -2.949,3.378C-3.816,3.378 -4.552,3.078 -5.157,2.477C-5.764,1.877 -6.066,1.132 -6.066,0.244C-6.066,-0.645 -5.764,-1.389 -5.157,-1.99C-4.552,-2.59 -3.816,-2.891 -2.949,-2.891C-2.52,-2.891 -2.108,-2.807 -1.718,-2.639C-1.327,-2.471 -1.014,-2.248 -0.779,-1.969L-1.307,-1.441C-1.704,-1.915 -2.251,-2.153 -2.949,-2.153C-3.581,-2.153 -4.127,-1.931 -4.588,-1.487C-5.049,-1.042 -5.279,-0.466 -5.279,0.244C-5.279,0.953 -5.049,1.53 -4.588,1.974C-4.127,2.419 -3.581,2.64 -2.949,2.64C-2.279,2.64 -1.721,2.417 -1.273,1.97C-0.983,1.679 -0.816,1.275 -0.771,0.755L-2.949,0.755L-2.949,0.034L-0.042,0.034C-0.014,0.191 0,0.342 0,0.487Z" style="fill:none;fill-rule:nonzero;stroke:white;stroke-width:0.2px;"/>
    </g>
    <g transform="matrix(1,0,0,1,52.0277,12.2634)">
        <path d="M0,-4.526L-2.732,-4.526L-2.732,-2.624L-0.268,-2.624L-0.268,-1.903L-2.732,-1.903L-2.732,-0.001L0,-0.001L0,0.737L-3.503,0.737L-3.503,-5.263L0,-5.263L0,-4.526Z" style="fill:white;fill-rule:nonzero;stroke:white;stroke-width:0.2px;"/>
    </g>
    <g transform="matrix(1,0,0,1,55.2787,7.0001)">
        <path d="M0,6L-0.771,6L-0.771,0.737L-2.447,0.737L-2.447,0L1.676,0L1.676,0.737L0,0.737L0,6Z" style="fill:white;fill-rule:nonzero;stroke:white;stroke-width:0.2px;"/>
    </g>
    <g transform="matrix(1,0,0,1,-10.0001,-29.9999)">
        <rect x="69.938" y="37" width="0.771" height="6" style="fill:white;stroke:white;stroke-width:0.2px;"/>
    </g>
    <g transform="matrix(1,0,0,1,64.1283,7.0001)">
        <path d="M0,6L-0.771,6L-0.771,0.737L-2.447,0.737L-2.447,0L1.676,0L1.676,0.737L0,0.737L0,6Z" style="fill:white;fill-rule:nonzero;stroke:white;stroke-width:0.2px;"/>
    </g>
    <g transform="matrix(1,0,0,1,69.7792,8.2773)">
        <path d="M0,3.445C0.444,3.895 0.987,4.119 1.63,4.119C2.273,4.119 2.816,3.895 3.26,3.445C3.704,2.995 3.927,2.421 3.927,1.723C3.927,1.025 3.704,0.45 3.26,0.001C2.816,-0.449 2.273,-0.674 1.63,-0.674C0.987,-0.674 0.444,-0.449 0,0.001C-0.443,0.45 -0.666,1.025 -0.666,1.723C-0.666,2.421 -0.443,2.995 0,3.445M3.83,3.947C3.24,4.554 2.507,4.857 1.63,4.857C0.753,4.857 0.02,4.554 -0.569,3.947C-1.159,3.341 -1.453,2.6 -1.453,1.723C-1.453,0.846 -1.159,0.104 -0.569,-0.502C0.02,-1.108 0.753,-1.412 1.63,-1.412C2.502,-1.412 3.233,-1.107 3.826,-0.498C4.418,0.111 4.714,0.851 4.714,1.723C4.714,2.6 4.419,3.341 3.83,3.947" style="fill:white;fill-rule:nonzero;"/>
    </g>
    <g transform="matrix(1,0,0,1,69.7792,8.2773)">
        <path d="M0,3.445C0.444,3.895 0.987,4.119 1.63,4.119C2.273,4.119 2.816,3.895 3.26,3.445C3.704,2.995 3.927,2.421 3.927,1.723C3.927,1.025 3.704,0.45 3.26,0.001C2.816,-0.449 2.273,-0.674 1.63,-0.674C0.987,-0.674 0.444,-0.449 0,0.001C-0.443,0.45 -0.666,1.025 -0.666,1.723C-0.666,2.421 -0.443,2.995 0,3.445ZM3.83,3.947C3.24,4.554 2.507,4.857 1.63,4.857C0.753,4.857 0.02,4.554 -0.569,3.947C-1.159,3.341 -1.453,2.6 -1.453,1.723C-1.453,0.846 -1.159,0.104 -0.569,-0.502C0.02,-1.108 0.753,-1.412 1.63,-1.412C2.502,-1.412 3.233,-1.107 3.826,-0.498C4.418,0.111 4.714,0.851 4.714,1.723C4.714,2.6 4.419,3.341 3.83,3.947Z" style="fill:none;fill-rule:nonzero;stroke:white;stroke-width:0.2px;"/>
    </g>
    <g transform="matrix(1,0,0,1,75.5751,7.0001)">
        <path d="M0,6L0,0L0.938,0L3.854,4.667L3.888,4.667L3.854,3.511L3.854,0L4.626,0L4.626,6L3.821,6L0.77,1.106L0.737,1.106L0.77,2.263L0.77,6L0,6Z" style="fill:white;fill-rule:nonzero;stroke:white;stroke-width:0.2px;"/>
    </g>
    <g transform="matrix(1,0,0,1,-10.0001,1.1231)">
        <path d="M116.936,28.877L118.802,28.877L118.802,16.376L116.936,16.376L116.936,28.877ZM133.743,20.879L131.604,26.299L131.54,26.299L129.32,20.879L127.31,20.879L130.639,28.454L128.742,32.668L130.687,32.668L135.818,20.879L133.743,20.879ZM123.161,27.457C122.549,27.457 121.697,27.152 121.697,26.395C121.697,25.431 122.758,25.061 123.675,25.061C124.495,25.061 124.882,25.238 125.38,25.479C125.235,26.637 124.238,27.457 123.161,27.457M123.386,20.606C122.035,20.606 120.635,21.201 120.057,22.52L121.713,23.211C122.067,22.52 122.726,22.294 123.418,22.294C124.383,22.294 125.364,22.873 125.38,23.903L125.38,24.031C125.042,23.838 124.319,23.549 123.434,23.549C121.649,23.549 119.831,24.53 119.831,26.363C119.831,28.036 121.295,29.114 122.935,29.114C124.19,29.114 124.882,28.551 125.316,27.891L125.38,27.891L125.38,28.856L127.181,28.856L127.181,24.063C127.181,21.844 125.525,20.606 123.386,20.606M111.854,22.401L109.2,22.401L109.2,18.116L111.854,18.116C113.249,18.116 114.041,19.271 114.041,20.258C114.041,21.227 113.249,22.401 111.854,22.401M111.806,16.376L107.335,16.376L107.335,28.877L109.2,28.877L109.2,24.141L111.806,24.141C113.874,24.141 115.907,22.643 115.907,20.258C115.907,17.873 113.874,16.376 111.806,16.376M87.425,27.459C86.136,27.459 85.057,26.38 85.057,24.898C85.057,23.4 86.136,22.304 87.425,22.304C88.698,22.304 89.696,23.4 89.696,24.898C89.696,26.38 88.698,27.459 87.425,27.459M89.568,21.579L89.503,21.579C89.084,21.08 88.279,20.629 87.264,20.629C85.137,20.629 83.188,22.497 83.188,24.898C83.188,27.282 85.137,29.135 87.264,29.135C88.279,29.135 89.084,28.684 89.503,28.168L89.568,28.168L89.568,28.781C89.568,30.408 88.698,31.278 87.296,31.278C86.152,31.278 85.443,30.456 85.153,29.763L83.526,30.44C83.993,31.568 85.234,32.953 87.296,32.953C89.487,32.953 91.34,31.664 91.34,28.523L91.34,20.886L89.568,20.886L89.568,21.579ZM92.629,28.877L94.498,28.877L94.498,16.375L92.629,16.375L92.629,28.877ZM97.252,24.753C97.204,23.11 98.525,22.272 99.475,22.272C100.217,22.272 100.845,22.642 101.054,23.174L97.252,24.753ZM103.052,23.335C102.698,22.385 101.618,20.629 99.411,20.629C97.22,20.629 95.4,22.352 95.4,24.882C95.4,27.266 97.204,29.135 99.62,29.135C101.57,29.135 102.698,27.943 103.165,27.25L101.715,26.283C101.232,26.992 100.571,27.459 99.62,27.459C98.67,27.459 97.993,27.024 97.558,26.171L103.245,23.818L103.052,23.335ZM57.744,21.934L57.744,23.738L62.061,23.738C61.932,24.753 61.594,25.494 61.079,26.009C60.45,26.638 59.467,27.331 57.744,27.331C55.085,27.331 53.007,25.188 53.007,22.53C53.007,19.871 55.085,17.729 57.744,17.729C59.178,17.729 60.225,18.293 60.998,19.018L62.271,17.745C61.191,16.714 59.758,15.924 57.744,15.924C54.103,15.924 51.042,18.889 51.042,22.53C51.042,26.171 54.103,29.135 57.744,29.135C59.709,29.135 61.191,28.49 62.351,27.282C63.544,26.09 63.914,24.415 63.914,23.061C63.914,22.642 63.882,22.256 63.817,21.934L57.744,21.934ZM68.823,27.459C67.534,27.459 66.422,26.396 66.422,24.882C66.422,23.351 67.534,22.304 68.823,22.304C70.111,22.304 71.223,23.351 71.223,24.882C71.223,26.396 70.111,27.459 68.823,27.459M68.823,20.629C66.47,20.629 64.553,22.417 64.553,24.882C64.553,27.331 66.47,29.135 68.823,29.135C71.175,29.135 73.092,27.331 73.092,24.882C73.092,22.417 71.175,20.629 68.823,20.629M78.136,27.459C76.847,27.459 75.735,26.396 75.735,24.882C75.735,23.351 76.847,22.304 78.136,22.304C79.425,22.304 80.536,23.351 80.536,24.882C80.536,26.396 79.425,27.459 78.136,27.459M78.136,20.629C75.784,20.629 73.867,22.417 73.867,24.882C73.867,27.331 75.784,29.135 78.136,29.135C80.488,29.135 82.405,27.331 82.405,24.882C82.405,22.417 80.488,20.629 78.136,20.629" style="fill:white;fill-rule:nonzero;"/>
    </g>
    <g transform="matrix(1,0,0,1,20.7172,32.8612)">
        <path d="M0,-13.437L-10.647,-2.137C-10.646,-2.135 -10.646,-2.132 -10.645,-2.13C-10.318,-0.903 -9.198,0 -7.868,0C-7.336,0 -6.837,-0.144 -6.409,-0.396L-6.375,-0.416L5.609,-7.331L0,-13.437Z" style="fill:rgb(234,67,53);fill-rule:nonzero;"/>
    </g>
    <g transform="matrix(1,0,0,1,31.4881,22.523)">
        <path d="M0,-5.023L-0.01,-5.03L-5.184,-8.029L-11.013,-2.842L-5.163,3.006L-0.017,0.037C0.885,-0.451 1.498,-1.402 1.498,-2.498C1.498,-3.588 0.894,-4.534 0,-5.023" style="fill:rgb(251,188,4);fill-rule:nonzero;"/>
    </g>
    <g transform="matrix(1,0,0,1,10.07,30.7242)">
        <path d="M0,-21.447C-0.064,-21.211 -0.098,-20.963 -0.098,-20.707L-0.098,-0.739C-0.098,-0.483 -0.064,-0.235 0.001,0L11.013,-11.011L0,-21.447Z" style="fill:rgb(66,133,244);fill-rule:nonzero;"/>
    </g>
    <g transform="matrix(1,0,0,1,20.7958,7.141)">
        <path d="M0,12.86L5.51,7.351L-6.46,0.411C-6.895,0.15 -7.403,0 -7.946,0C-9.276,0 -10.398,0.905 -10.725,2.133C-10.725,2.134 -10.726,2.135 -10.726,2.136L0,12.86Z" style="fill:rgb(52,168,83);fill-rule:nonzero;"/>
    </g>
</svg>
